<?xml version="1.0" encoding="UTF-8"?>
<svg width="60px" height="60px" viewBox="0 0 60 60" version="1.1" xmlns="http://www.w3.org/2000/svg" xmlns:xlink="http://www.w3.org/1999/xlink">
    <!-- Generator: Sketch 46.2 (44496) - http://www.bohemiancoding.com/sketch -->
    <title>Terrible</title>
    <desc>Created with Sketch.</desc>
    <defs></defs>
    <g id="Page-1" stroke="none" stroke-width="1" fill="none" fill-rule="evenodd">
        <g id="Single-Movie" transform="translate(-884.000000, -812.000000)">
            <g id="content" transform="translate(-21.000000, 120.000000)">
                <g id="voter" transform="translate(841.000000, 692.000000)">
                    <g id="Terrible" transform="translate(64.000000, 0.000000)">
                        <circle id="Oval-3" fill="#D8D8D8" cx="30" cy="30" r="30"></circle>
                        <path d="M22.5,27 C24.9852814,27 29,24 27,22.5 C25,21 25,21 22.5,20 C20,19 18,20.0147186 18,22.5 C18,24.9852814 20.0147186,27 22.5,27 Z" id="Oval-3" fill="#7C7C7C"></path>
                        <path d="M36.5,27.3810264 C38.9852814,27.3810264 43,24.3810264 41,22.8810264 C39,21.3810264 39,21.3810264 36.5,20.3810264 C34,19.3810264 32,20.3957451 32,22.8810264 C32,25.3663078 34.0147186,27.3810264 36.5,27.3810264 Z" id="Oval-3" fill="#7C7C7C" transform="translate(36.770190, 23.690513) scale(-1, 1) translate(-36.770190, -23.690513) "></path>
                        <path d="M18,43 L18,43 L18,43 C21.4606415,36.4247812 29.5963137,33.8999174 36.1715326,37.3605589 C37.9701194,38.3071835 39.5308527,39.6490144 40.7365235,41.2852819 L42,43" id="Path-3" stroke="#7C7C7C" stroke-width="2"></path>
                    </g>
                </g>
            </g>
        </g>
    </g>
</svg>