<?xml version="1.0" encoding="UTF-8"?>
<svg width="60px" height="60px" viewBox="0 0 60 60" version="1.1" xmlns="http://www.w3.org/2000/svg" xmlns:xlink="http://www.w3.org/1999/xlink">
    <!-- Generator: Sketch 46.2 (44496) - http://www.bohemiancoding.com/sketch -->
    <title>Great</title>
    <desc>Created with Sketch.</desc>
    <defs></defs>
    <g id="Page-1" stroke="none" stroke-width="1" fill="none" fill-rule="evenodd">
        <g id="Single-Movie" transform="translate(-1204.000000, -813.000000)">
            <g id="content" transform="translate(-21.000000, 120.000000)">
                <g id="voter" transform="translate(841.000000, 692.000000)">
                    <g id="Great" transform="translate(384.000000, 1.000000)">
                        <circle id="Oval-3-Copy-3" fill="#D8D8D8" cx="30" cy="30" r="30"></circle>
                        <path d="M22.5,21 C24.9852814,21 27,24.9852814 27,22.5 C27,20.0147186 24.9852814,18 22.5,18 C20.0147186,18 18,20.0147186 18,22.5 C18,24.9852814 20.0147186,21 22.5,21 Z" id="Oval-3-Copy-2" fill="#7C7C7C"></path>
                        <path d="M37.5,21 C39.9852814,21 42,24.9852814 42,22.5 C42,20.0147186 39.9852814,18 37.5,18 C35.0147186,18 33,20.0147186 33,22.5 C33,24.9852814 35.0147186,21 37.5,21 Z" id="Oval-3-Copy" fill="#7C7C7C"></path>
                        <path d="M20,37 L20,37 L20,37 C23.6218959,42.7950334 31.2558254,44.5567094 37.0508588,40.9348136 C38.4896037,40.035598 39.728051,38.8501077 40.6892445,37.4520081 L41,37" id="Path-3-Copy" stroke="#7C7C7C" stroke-width="2"></path>
                    </g>
                </g>
            </g>
        </g>
    </g>
</svg>